<svg xmlns="http://www.w3.org/2000/svg" width="1200" height="740" viewBox="0 0 1200 740" role="img" aria-labelledby="t d">
  <title id="t">Casablanca-Settat</title>
  <desc id="d">Carte visuelle de pilotage de projets INDH par province.</desc>
  <defs>
    <linearGradient id="bg" x1="0" y1="0" x2="1" y2="1">
      <stop offset="0%" stop-color="#14532d"/>
      <stop offset="100%" stop-color="#22c55e"/>
    </linearGradient>
    <radialGradient id="glow" cx="0.22" cy="0.2" r="0.92">
      <stop offset="0%" stop-color="#fb7185" stop-opacity="0.8"/>
      <stop offset="100%" stop-color="#fb7185" stop-opacity="0"/>
    </radialGradient>
  </defs>

  <rect width="1200" height="740" fill="url(#bg)"/>
  <circle cx="220" cy="130" r="250" fill="url(#glow)"/>
  <circle cx="990" cy="600" r="230" fill="url(#glow)"/>

  <g fill="none" stroke="rgba(255,255,255,0.36)" stroke-linecap="round">
    <path d="M130 520 C300 420, 380 610, 560 520 C700 450, 850 590, 1040 500" stroke-width="16"/>
    <path d="M120 610 C260 540, 430 700, 620 620 C760 560, 930 680, 1090 620" stroke-width="8"/>
  </g>

  <g fill="rgba(255,255,255,0.22)">
    <rect x="170" y="248" width="120" height="92" rx="20"/>
    <rect x="340" y="214" width="120" height="126" rx="20"/>
    <rect x="510" y="186" width="120" height="154" rx="20"/>
    <rect x="680" y="230" width="120" height="110" rx="20"/>
    <rect x="850" y="202" width="120" height="138" rx="20"/>
  </g>

  <g>
    <rect x="70" y="74" width="470" height="86" rx="24" fill="rgba(255,255,255,0.16)"/>
    <text x="104" y="130" font-size="38" font-family="Arial, sans-serif" font-weight="700" fill="#ffffff">Pilotage Province</text>
    <text x="70" y="690" font-size="36" font-family="Arial, sans-serif" font-weight="600" fill="#ffffff">Casablanca-Settat</text>
  </g>
</svg>
