<svg xmlns="http://www.w3.org/2000/svg" width="1200" height="760" viewBox="0 0 1200 760" role="img" aria-labelledby="t d">
  <title id="t">Groupe Ideation & Projet</title>
  <desc id="d">Illustration abstraite pour un groupe communaute INDH Digitale.</desc>
  <defs>
    <linearGradient id="bg" x1="0" y1="0" x2="1" y2="1">
      <stop offset="0%" stop-color="#0f766e"/>
      <stop offset="100%" stop-color="#14b8a6"/>
    </linearGradient>
    <radialGradient id="glow" cx="0.22" cy="0.18" r="0.9">
      <stop offset="0%" stop-color="#f59e0b" stop-opacity="0.82"/>
      <stop offset="100%" stop-color="#f59e0b" stop-opacity="0"/>
    </radialGradient>
  </defs>

  <rect width="1200" height="760" fill="url(#bg)"/>
  <circle cx="220" cy="150" r="250" fill="url(#glow)"/>
  <circle cx="980" cy="620" r="240" fill="url(#glow)"/>

  <g fill="rgba(255,255,255,0.14)">
    <circle cx="330" cy="340" r="52"/>
    <circle cx="500" cy="300" r="52"/>
    <circle cx="670" cy="340" r="52"/>
    <circle cx="840" cy="300" r="52"/>
  </g>
  <g stroke="rgba(255,255,255,0.28)" stroke-width="7" fill="none">
    <path d="M330 340 C390 260, 440 260, 500 300"/>
    <path d="M500 300 C560 260, 610 260, 670 340"/>
    <path d="M670 340 C730 260, 780 260, 840 300"/>
  </g>

  <g>
    <rect x="72" y="76" rx="24" width="420" height="86" fill="rgba(255,255,255,0.16)"/>
    <text x="102" y="132" font-size="40" font-family="Arial, sans-serif" font-weight="700" fill="#ffffff">INDH Communaute</text>
    <text x="72" y="700" font-size="40" font-family="Arial, sans-serif" font-weight="600" fill="#ffffff">Groupe Ideation & Projet</text>
  </g>
</svg>
